<?xml version="1.0" encoding="UTF-8"?>
<svg width="274px" height="213px" viewBox="0 0 274 213" version="1.1" xmlns="http://www.w3.org/2000/svg" xmlns:xlink="http://www.w3.org/1999/xlink">
    <!-- Generator: Sketch 39.1 (31720) - http://www.bohemiancoding.com/sketch -->
    <title>Group</title>
    <desc>Created with Sketch.</desc>
    <defs></defs>
    <g id="Page-1" stroke="none" stroke-width="1" fill="none" fill-rule="evenodd">
        <g id="Group" fill="#BC0034">
            <path d="M0,50.72 L0,157.856 L11.376,157.856 L11.232,89.024 L17.856,157.856 L30.96,157.856 L30.96,50.72 L19.44,50.72 L19.728,112.496 L14.256,50.72 L0,50.72 Z M65.088,66.272 C65.088,56.336 60.624,50 50.256,50 L48.24,50 C37.872,50 33.264,56.048 33.264,66.272 L33.264,142.592 C33.264,152.816 38.448,158.576 48.24,158.576 L50.256,158.576 C59.616,158.576 65.088,152.96 65.088,142.592 L65.088,66.272 Z M50.832,143.744 C50.832,145.328 50.256,146.048 49.248,146.048 C48.24,146.048 47.664,145.328 47.664,143.744 L47.664,64.832 C47.664,63.248 48.24,62.384 49.248,62.384 C50.256,62.384 50.832,63.248 50.832,64.832 L50.832,143.744 Z M81.504,50.72 L67.392,50.72 L67.392,157.856 L81.504,157.856 L81.504,50.72 Z M100.512,158.576 C110.304,158.576 114.912,153.104 114.912,143.888 L114.912,116.24 C114.912,108.752 113.04,105.008 107.712,99.968 L100.224,92.48 C98.496,90.608 98.064,89.744 98.064,87.008 L98.064,62.672 C98.064,61.52 98.496,60.944 99.504,60.944 C100.512,60.944 100.944,61.52 100.944,62.672 L100.944,90.896 L114.336,90.896 L114.336,62.096 C114.336,55.184 111.312,50 101.088,50 L97.92,50 C87.696,50 83.952,55.184 83.952,63.248 L83.952,87.584 C83.952,94.352 85.68,98.816 90.288,103.28 L97.92,110.768 C100.08,112.928 100.368,113.936 100.368,116.816 L100.368,144.608 C100.368,146.192 99.792,146.912 98.784,146.912 C97.776,146.912 97.344,146.192 97.344,144.608 L97.344,112.208 L83.52,112.208 L83.52,145.616 C83.52,154.256 88.128,158.576 97.344,158.576 L100.512,158.576 Z M116.928,50.72 L116.928,157.856 L140.688,157.856 L140.688,144.896 L130.752,144.896 L130.752,108.032 L139.104,108.032 L139.104,94.784 L130.752,94.784 L130.752,63.536 L140.4,63.536 L140.4,50.72 L116.928,50.72 Z M155.808,89.312 L155.808,63.104 C155.808,61.952 156.24,61.376 156.96,61.376 C157.824,61.376 158.256,61.952 158.256,63.104 L158.256,92.624 C158.256,93.632 157.824,94.064 156.816,94.064 L150.768,94.064 L150.768,106.736 L157.104,106.736 C157.968,106.736 158.4,107.168 158.4,108.032 L158.4,144.464 C158.4,145.616 157.968,146.192 157.104,146.192 C156.24,146.192 155.808,145.616 155.808,144.464 L155.808,111.488 L142.56,111.488 L142.56,146.912 C142.56,153.104 145.872,158.576 156.24,158.576 L158.256,158.576 C167.472,158.576 172.368,154.112 172.368,145.616 L172.368,105.296 C172.368,101.408 170.064,98.96 167.904,97.952 C169.056,97.232 171.792,95.216 171.792,90.752 L171.792,61.664 C171.792,54.752 167.904,50.144 158.112,50.144 L156.24,50.144 C146.592,50.144 143.28,55.04 143.28,61.808 L143.28,89.312 L155.808,89.312 Z M206.064,66.272 C206.064,56.336 201.744,50 191.376,50 L189.36,50 C178.992,50 174.528,56.048 174.528,66.272 L174.528,142.592 C174.528,152.816 179.568,158.576 189.36,158.576 L191.376,158.576 C200.736,158.576 206.064,152.96 206.064,142.592 L206.064,66.272 Z M191.664,143.888 C191.664,145.328 191.232,146.048 190.368,146.048 C189.36,146.048 188.928,145.328 188.928,143.888 L188.928,64.544 C188.928,63.104 189.36,62.384 190.368,62.384 C191.52,62.384 191.664,63.248 191.664,64.544 L191.664,143.888 Z M239.904,66.272 C239.904,56.336 235.584,50 225.216,50 L223.2,50 C212.832,50 208.368,56.048 208.368,66.272 L208.368,142.592 C208.368,152.816 213.408,158.576 223.2,158.576 L225.216,158.576 C234.576,158.576 239.904,152.96 239.904,142.592 L239.904,66.272 Z M225.504,143.888 C225.504,145.328 225.072,146.048 224.208,146.048 C223.2,146.048 222.768,145.328 222.768,143.888 L222.768,64.544 C222.768,63.104 223.2,62.384 224.208,62.384 C225.36,62.384 225.504,63.248 225.504,64.544 L225.504,143.888 Z M273.744,66.272 C273.744,56.336 269.424,50 259.056,50 L257.04,50 C246.672,50 242.208,56.048 242.208,66.272 L242.208,142.592 C242.208,152.816 247.248,158.576 257.04,158.576 L259.056,158.576 C268.416,158.576 273.744,152.96 273.744,142.592 L273.744,66.272 Z M259.344,143.888 C259.344,145.328 258.912,146.048 258.048,146.048 C257.04,146.048 256.608,145.328 256.608,143.888 L256.608,64.544 C256.608,63.104 257.04,62.384 258.048,62.384 C259.2,62.384 259.344,63.248 259.344,64.544 L259.344,143.888 Z" id="NOISE3000"></path>
            <path d="M86.064,35.712 L90.672,35.712 L90.672,4.272 L92.784,4.272 L92.784,0 L84,0 L84,4.272 L86.064,4.272 L86.064,35.712 Z M93.456,35.712 L98.16,35.712 L98.16,19.44 L99.12,19.44 L99.12,35.712 L103.776,35.712 L103.776,0 L99.12,0 L99.12,14.592 L98.16,14.592 L98.16,0 L93.456,0 L93.456,35.712 Z M104.544,0 L104.544,35.712 L112.464,35.712 L112.464,31.392 L109.152,31.392 L109.152,19.104 L111.936,19.104 L111.936,14.688 L109.152,14.688 L109.152,4.272 L112.368,4.272 L112.368,0 L104.544,0 Z M120.864,0 L116.16,0 L116.16,35.712 L120.864,35.712 L120.864,0 Z M121.68,0 L121.68,35.712 L125.472,35.712 L125.424,12.768 L127.632,35.712 L132,35.712 L132,0 L128.16,0 L128.256,20.592 L126.432,0 L121.68,0 Z M134.736,35.712 L139.344,35.712 L139.344,4.272 L141.456,4.272 L141.456,0 L132.672,0 L132.672,4.272 L134.736,4.272 L134.736,35.712 Z M142.128,0 L142.128,35.712 L150.048,35.712 L150.048,31.392 L146.736,31.392 L146.736,19.104 L149.52,19.104 L149.52,14.688 L146.736,14.688 L146.736,4.272 L149.952,4.272 L149.952,0 L142.128,0 Z M155.424,3.6 L155.808,3.6 C156.24,3.6 156.288,3.792 156.288,4.224 L156.288,14.64 C156.288,15.072 156.096,15.264 155.76,15.264 L155.424,15.264 L155.424,3.6 Z M155.424,19.296 L155.76,19.296 C156.288,19.296 156.288,19.584 156.288,19.92 L156.288,34.56 C156.288,35.088 156.384,35.472 156.624,35.712 L161.184,35.712 L161.184,35.616 C161.04,35.28 160.992,34.944 160.992,34.416 L160.992,19.2 C160.992,17.712 160.032,16.944 159.264,16.608 C159.984,16.272 160.896,15.504 160.896,13.632 L160.896,3.312 C160.896,1.056 159.696,0 158.016,0 L150.72,0 L150.72,35.712 L155.424,35.712 L155.424,19.296 Z M161.808,0 L161.808,35.712 L165.6,35.712 L165.552,12.768 L167.76,35.712 L172.128,35.712 L172.128,0 L168.288,0 L168.384,20.592 L166.56,0 L161.808,0 Z M172.896,0 L172.896,35.712 L180.816,35.712 L180.816,31.392 L177.504,31.392 L177.504,19.104 L180.288,19.104 L180.288,14.688 L177.504,14.688 L177.504,4.272 L180.72,4.272 L180.72,0 L172.896,0 Z M183.456,35.712 L188.064,35.712 L188.064,4.272 L190.176,4.272 L190.176,0 L181.392,0 L181.392,4.272 L183.456,4.272 L183.456,35.712 Z" id="THE-INTERNET"></path>
            <path d="M66.608,178.424 C66.608,175.112 65.12,173 61.664,173 L60.992,173 C57.536,173 56,175.016 56,178.424 L56,203.864 C56,207.272 57.728,209.192 60.992,209.192 L61.664,209.192 C64.784,209.192 66.608,207.32 66.608,203.864 L66.608,178.424 Z M61.856,204.248 C61.856,204.776 61.664,205.016 61.328,205.016 C60.992,205.016 60.8,204.776 60.8,204.248 L60.8,177.944 C60.8,177.416 60.992,177.128 61.328,177.128 C61.664,177.128 61.856,177.416 61.856,177.944 L61.856,204.248 Z M67.424,173.24 L67.424,208.952 L71.216,208.952 L71.168,186.008 L73.376,208.952 L77.744,208.952 L77.744,173.24 L73.904,173.24 L74,193.832 L72.176,173.24 L67.424,173.24 Z M85.184,209.192 C86.768,209.192 87.728,208.04 88.352,207.08 C88.496,207.512 88.784,208.424 88.832,208.952 L92,208.952 L92,188.072 L86.672,188.072 L86.672,191.72 L87.584,191.72 L87.584,204.44 C87.584,205.016 87.344,205.304 86.912,205.304 C86.48,205.304 86.288,205.016 86.288,204.44 L86.288,177.656 C86.288,177.176 86.432,176.936 86.768,176.936 C87.296,176.936 87.296,177.224 87.296,177.656 L87.296,186.92 L91.808,186.92 L91.808,177.416 C91.808,175.16 90.752,173 87.056,173 L86.432,173 C82.736,173 81.536,175.208 81.536,177.704 L81.536,204.68 C81.536,207.128 82.64,209.192 85.088,209.192 L85.184,209.192 Z M97.424,173.24 L92.72,173.24 L92.72,208.952 L97.424,208.952 L97.424,173.24 Z M100.16,208.952 L104.768,208.952 L104.768,177.512 L106.88,177.512 L106.88,173.24 L98.096,173.24 L98.096,177.512 L100.16,177.512 L100.16,208.952 Z M107.552,208.952 L112.256,208.952 L112.256,192.68 L113.216,192.68 L113.216,208.952 L117.872,208.952 L117.872,173.24 L113.216,173.24 L113.216,187.832 L112.256,187.832 L112.256,173.24 L107.552,173.24 L107.552,208.952 Z M124.256,209.192 C127.664,209.192 129.152,207.128 129.152,204.68 L129.152,173.24 L124.4,173.24 L124.4,204.152 C124.4,204.632 124.208,204.872 123.872,204.872 C123.536,204.872 123.392,204.632 123.392,204.152 L123.392,173.24 L118.64,173.24 L118.64,204.68 C118.64,207.128 119.936,209.192 123.536,209.192 L124.256,209.192 Z M129.92,208.952 L136.928,208.952 C139.28,208.952 140.432,207.56 140.432,204.824 L140.432,192.92 C140.432,190.76 139.088,189.896 138.272,189.656 C138.992,189.464 140.096,188.6 140.096,186.824 L140.096,176.696 C140.096,174.248 138.896,173.24 136.976,173.24 L129.92,173.24 L129.92,208.952 Z M134.96,176.84 C135.488,176.84 135.536,176.984 135.536,177.512 L135.536,187.688 C135.536,188.12 135.344,188.36 134.96,188.36 L134.624,188.36 L134.624,176.84 L134.96,176.84 Z M135.056,191.864 C135.392,191.864 135.584,192.104 135.584,192.632 L135.584,204.536 C135.584,205.064 135.584,205.256 135.056,205.256 L134.624,205.256 L134.624,191.864 L135.056,191.864 Z M144.176,212.264 C144.512,211.448 145.088,209.816 145.088,207.896 L145.088,203.768 L141.056,203.768 L141.056,208.952 L142.544,208.952 C142.544,210.056 142.16,211.544 141.824,212.264 L144.176,212.264 Z M148.832,208.952 L153.392,208.952 L153.392,192.344 L156.128,192.344 L156.08,187.976 L153.392,187.976 L153.392,177.512 L156.56,177.512 L156.56,173.24 L148.832,173.24 L148.832,208.952 Z M167.84,178.424 C167.84,175.112 166.352,173 162.896,173 L162.224,173 C158.768,173 157.232,175.016 157.232,178.424 L157.232,203.864 C157.232,207.272 158.96,209.192 162.224,209.192 L162.896,209.192 C166.016,209.192 167.84,207.32 167.84,203.864 L167.84,178.424 Z M163.088,204.248 C163.088,204.776 162.896,205.016 162.56,205.016 C162.224,205.016 162.032,204.776 162.032,204.248 L162.032,177.944 C162.032,177.416 162.224,177.128 162.56,177.128 C162.896,177.128 163.088,177.416 163.088,177.944 L163.088,204.248 Z M173.312,176.84 L173.696,176.84 C174.128,176.84 174.176,177.032 174.176,177.464 L174.176,187.88 C174.176,188.312 173.984,188.504 173.648,188.504 L173.312,188.504 L173.312,176.84 Z M173.312,192.536 L173.648,192.536 C174.176,192.536 174.176,192.824 174.176,193.16 L174.176,207.8 C174.176,208.328 174.272,208.712 174.512,208.952 L179.072,208.952 L179.072,208.856 C178.928,208.52 178.88,208.184 178.88,207.656 L178.88,192.44 C178.88,190.952 177.92,190.184 177.152,189.848 C177.872,189.512 178.784,188.744 178.784,186.872 L178.784,176.552 C178.784,174.296 177.584,173.24 175.904,173.24 L168.608,173.24 L168.608,208.952 L173.312,208.952 L173.312,192.536 Z M179.648,173.24 L179.648,208.952 L187.568,208.952 L187.568,204.632 L184.256,204.632 L184.256,192.344 L187.04,192.344 L187.04,187.928 L184.256,187.928 L184.256,177.512 L187.472,177.512 L187.472,173.24 L179.648,173.24 Z M190.544,208.952 L196.784,208.952 L199.28,173.24 L194.72,173.24 L193.808,199.112 L192.848,173.24 L187.856,173.24 L190.544,208.952 Z M199.664,173.24 L199.664,208.952 L207.584,208.952 L207.584,204.632 L204.272,204.632 L204.272,192.344 L207.056,192.344 L207.056,187.928 L204.272,187.928 L204.272,177.512 L207.488,177.512 L207.488,173.24 L199.664,173.24 Z M212.96,176.84 L213.344,176.84 C213.776,176.84 213.824,177.032 213.824,177.464 L213.824,187.88 C213.824,188.312 213.632,188.504 213.296,188.504 L212.96,188.504 L212.96,176.84 Z M212.96,192.536 L213.296,192.536 C213.824,192.536 213.824,192.824 213.824,193.16 L213.824,207.8 C213.824,208.328 213.92,208.712 214.16,208.952 L218.72,208.952 L218.72,208.856 C218.576,208.52 218.528,208.184 218.528,207.656 L218.528,192.44 C218.528,190.952 217.568,190.184 216.8,189.848 C217.52,189.512 218.432,188.744 218.432,186.872 L218.432,176.552 C218.432,174.296 217.232,173.24 215.552,173.24 L208.256,173.24 L208.256,208.952 L212.96,208.952 L212.96,192.536 Z" id="ON-GITHUB,-FOREVER"></path>
            <path d="M125.888,49.064 C126.976,49.064 127.488,48.456 127.488,47.432 L127.488,44.36 C127.488,43.528 127.28,43.112 126.688,42.552 L125.856,41.72 C125.664,41.512 125.616,41.416 125.616,41.112 L125.616,38.408 C125.616,38.28 125.664,38.216 125.776,38.216 C125.888,38.216 125.936,38.28 125.936,38.408 L125.936,41.544 L127.424,41.544 L127.424,38.344 C127.424,37.576 127.088,37 125.952,37 L125.6,37 C124.464,37 124.048,37.576 124.048,38.472 L124.048,41.176 C124.048,41.928 124.24,42.424 124.752,42.92 L125.6,43.752 C125.84,43.992 125.872,44.104 125.872,44.424 L125.872,47.512 C125.872,47.688 125.808,47.768 125.696,47.768 C125.584,47.768 125.536,47.688 125.536,47.512 L125.536,43.912 L124,43.912 L124,47.624 C124,48.584 124.512,49.064 125.536,49.064 L125.888,49.064 Z M128.368,48.984 L129.904,48.984 L129.904,38.504 L130.608,38.504 L130.608,37.08 L127.68,37.08 L127.68,38.504 L128.368,38.504 L128.368,48.984 Z M132.576,45.208 L132.192,45.208 L132.384,40.184 L132.576,45.208 Z M132.72,48.984 L134.224,48.984 L133.424,37.08 L131.44,37.08 L130.688,48.984 L132.032,48.984 L132.128,46.568 L132.624,46.568 L132.72,48.984 Z M135.904,38.28 L136.032,38.28 C136.176,38.28 136.192,38.344 136.192,38.488 L136.192,41.96 C136.192,42.104 136.128,42.168 136.016,42.168 L135.904,42.168 L135.904,38.28 Z M135.904,43.512 L136.016,43.512 C136.192,43.512 136.192,43.608 136.192,43.72 L136.192,48.6 C136.192,48.776 136.224,48.904 136.304,48.984 L137.824,48.984 L137.824,48.952 C137.776,48.84 137.76,48.728 137.76,48.552 L137.76,43.48 C137.76,42.984 137.44,42.728 137.184,42.616 C137.424,42.504 137.728,42.248 137.728,41.624 L137.728,38.184 C137.728,37.432 137.328,37.08 136.768,37.08 L134.336,37.08 L134.336,48.984 L135.904,48.984 L135.904,43.512 Z M139.584,38.28 L139.712,38.28 C139.856,38.28 139.872,38.344 139.872,38.488 L139.872,41.96 C139.872,42.104 139.808,42.168 139.696,42.168 L139.584,42.168 L139.584,38.28 Z M139.584,43.512 L139.696,43.512 C139.872,43.512 139.872,43.608 139.872,43.72 L139.872,48.6 C139.872,48.776 139.904,48.904 139.984,48.984 L141.504,48.984 L141.504,48.952 C141.456,48.84 141.44,48.728 141.44,48.552 L141.44,43.48 C141.44,42.984 141.12,42.728 140.864,42.616 C141.104,42.504 141.408,42.248 141.408,41.624 L141.408,38.184 C141.408,37.432 141.008,37.08 140.448,37.08 L138.016,37.08 L138.016,48.984 L139.584,48.984 L139.584,43.512 Z M143.264,37.08 L141.696,37.08 L141.696,48.984 L143.264,48.984 L143.264,37.08 Z M143.536,37.08 L143.536,48.984 L144.8,48.984 L144.784,41.336 L145.52,48.984 L146.976,48.984 L146.976,37.08 L145.696,37.08 L145.728,43.944 L145.12,37.08 L143.536,37.08 Z M148.448,49.064 C148.976,49.064 149.296,48.68 149.504,48.36 C149.552,48.504 149.648,48.808 149.664,48.984 L150.72,48.984 L150.72,42.024 L148.944,42.024 L148.944,43.24 L149.248,43.24 L149.248,47.48 C149.248,47.672 149.168,47.768 149.024,47.768 C148.88,47.768 148.816,47.672 148.816,47.48 L148.816,38.552 C148.816,38.392 148.864,38.312 148.976,38.312 C149.152,38.312 149.152,38.408 149.152,38.552 L149.152,41.64 L150.656,41.64 L150.656,38.472 C150.656,37.72 150.304,37 149.072,37 L148.864,37 C147.632,37 147.232,37.736 147.232,38.568 L147.232,47.56 C147.232,48.376 147.6,49.064 148.416,49.064 L148.448,49.064 Z" id="STARRING"></path>
            <path d="M32,171.984 L33.52,171.984 L33.52,166.448 L34.432,166.448 L34.416,164.992 L33.52,164.992 L33.52,161.504 L34.576,161.504 L34.576,160.08 L32,160.08 L32,171.984 Z M34.8,160.08 L34.8,171.984 L37.44,171.984 L37.44,170.544 L36.336,170.544 L36.336,166.448 L37.264,166.448 L37.264,164.976 L36.336,164.976 L36.336,161.504 L37.408,161.504 L37.408,160.08 L34.8,160.08 Z M39.408,168.208 L39.024,168.208 L39.216,163.184 L39.408,168.208 Z M39.552,171.984 L41.056,171.984 L40.256,160.08 L38.272,160.08 L37.52,171.984 L38.864,171.984 L38.96,169.568 L39.456,169.568 L39.552,171.984 Z M41.824,171.984 L43.36,171.984 L43.36,161.504 L44.064,161.504 L44.064,160.08 L41.136,160.08 L41.136,161.504 L41.824,161.504 L41.824,171.984 Z M46.16,172.064 C47.296,172.064 47.792,171.376 47.792,170.56 L47.792,160.08 L46.208,160.08 L46.208,170.384 C46.208,170.544 46.144,170.624 46.032,170.624 C45.92,170.624 45.872,170.544 45.872,170.384 L45.872,160.08 L44.288,160.08 L44.288,170.56 C44.288,171.376 44.72,172.064 45.92,172.064 L46.16,172.064 Z M49.616,161.28 L49.744,161.28 C49.888,161.28 49.904,161.344 49.904,161.488 L49.904,164.96 C49.904,165.104 49.84,165.168 49.728,165.168 L49.616,165.168 L49.616,161.28 Z M49.616,166.512 L49.728,166.512 C49.904,166.512 49.904,166.608 49.904,166.72 L49.904,171.6 C49.904,171.776 49.936,171.904 50.016,171.984 L51.536,171.984 L51.536,171.952 C51.488,171.84 51.472,171.728 51.472,171.552 L51.472,166.48 C51.472,165.984 51.152,165.728 50.896,165.616 C51.136,165.504 51.44,165.248 51.44,164.624 L51.44,161.184 C51.44,160.432 51.04,160.08 50.48,160.08 L48.048,160.08 L48.048,171.984 L49.616,171.984 L49.616,166.512 Z M53.296,160.08 L51.728,160.08 L51.728,171.984 L53.296,171.984 L53.296,160.08 Z M53.568,160.08 L53.568,171.984 L54.832,171.984 L54.816,164.336 L55.552,171.984 L57.008,171.984 L57.008,160.08 L55.728,160.08 L55.76,166.944 L55.152,160.08 L53.568,160.08 Z M58.48,172.064 C59.008,172.064 59.328,171.68 59.536,171.36 C59.584,171.504 59.68,171.808 59.696,171.984 L60.752,171.984 L60.752,165.024 L58.976,165.024 L58.976,166.24 L59.28,166.24 L59.28,170.48 C59.28,170.672 59.2,170.768 59.056,170.768 C58.912,170.768 58.848,170.672 58.848,170.48 L58.848,161.552 C58.848,161.392 58.896,161.312 59.008,161.312 C59.184,161.312 59.184,161.408 59.184,161.552 L59.184,164.64 L60.688,164.64 L60.688,161.472 C60.688,160.72 60.336,160 59.104,160 L58.896,160 C57.664,160 57.264,160.736 57.264,161.568 L57.264,170.56 C57.264,171.376 57.632,172.064 58.448,172.064 L58.48,172.064 Z M63.76,172.064 C64.8,172.064 65.248,171.456 65.248,170.672 L65.248,160.08 L63.664,160.08 L63.664,170.56 C63.664,170.672 63.616,170.72 63.536,170.72 C63.44,170.72 63.392,170.672 63.392,170.56 L63.392,166.96 L61.984,166.96 L61.984,170.704 C61.984,171.456 62.336,172.064 63.344,172.064 L63.76,172.064 Z M67.248,168.208 L66.864,168.208 L67.056,163.184 L67.248,168.208 Z M67.392,171.984 L68.896,171.984 L68.096,160.08 L66.112,160.08 L65.36,171.984 L66.704,171.984 L66.8,169.568 L67.296,169.568 L67.392,171.984 Z M69.776,171.984 L71.856,171.984 L72.688,160.08 L71.168,160.08 L70.864,168.704 L70.544,160.08 L68.88,160.08 L69.776,171.984 Z M74.56,168.208 L74.176,168.208 L74.368,163.184 L74.56,168.208 Z M74.704,171.984 L76.208,171.984 L75.408,160.08 L73.424,160.08 L72.672,171.984 L74.016,171.984 L74.112,169.568 L74.608,169.568 L74.704,171.984 Z M78.176,172.064 C79.264,172.064 79.776,171.456 79.776,170.432 L79.776,167.36 C79.776,166.528 79.568,166.112 78.976,165.552 L78.144,164.72 C77.952,164.512 77.904,164.416 77.904,164.112 L77.904,161.408 C77.904,161.28 77.952,161.216 78.064,161.216 C78.176,161.216 78.224,161.28 78.224,161.408 L78.224,164.544 L79.712,164.544 L79.712,161.344 C79.712,160.576 79.376,160 78.24,160 L77.888,160 C76.752,160 76.336,160.576 76.336,161.472 L76.336,164.176 C76.336,164.928 76.528,165.424 77.04,165.92 L77.888,166.752 C78.128,166.992 78.16,167.104 78.16,167.424 L78.16,170.512 C78.16,170.688 78.096,170.768 77.984,170.768 C77.872,170.768 77.824,170.688 77.824,170.512 L77.824,166.912 L76.288,166.912 L76.288,170.624 C76.288,171.584 76.8,172.064 77.824,172.064 L78.176,172.064 Z M81.744,170.704 C81.632,170.704 81.584,170.624 81.584,170.448 L81.584,161.568 C81.584,161.408 81.632,161.328 81.744,161.328 C81.856,161.328 81.904,161.408 81.904,161.568 L81.904,165.184 L83.424,165.184 L83.424,161.52 C83.424,160.608 82.976,160 81.888,160 L81.632,160 C80.432,160 80,160.688 80,161.664 L80,170.352 C80,171.44 80.464,172.064 81.632,172.064 L81.888,172.064 C82.976,172.064 83.424,171.36 83.424,170.48 L83.424,166.432 L81.904,166.432 L81.904,170.448 C81.904,170.624 81.856,170.704 81.744,170.704 L81.744,170.704 Z M85.232,161.28 L85.36,161.28 C85.504,161.28 85.52,161.344 85.52,161.488 L85.52,164.96 C85.52,165.104 85.456,165.168 85.344,165.168 L85.232,165.168 L85.232,161.28 Z M85.232,166.512 L85.344,166.512 C85.52,166.512 85.52,166.608 85.52,166.72 L85.52,171.6 C85.52,171.776 85.552,171.904 85.632,171.984 L87.152,171.984 L87.152,171.952 C87.104,171.84 87.088,171.728 87.088,171.552 L87.088,166.48 C87.088,165.984 86.768,165.728 86.512,165.616 C86.752,165.504 87.056,165.248 87.056,164.624 L87.056,161.184 C87.056,160.432 86.656,160.08 86.096,160.08 L83.664,160.08 L83.664,171.984 L85.232,171.984 L85.232,166.512 Z M88.912,160.08 L87.344,160.08 L87.344,171.984 L88.912,171.984 L88.912,160.08 Z M91.456,166.848 C92.08,166.848 92.544,166.464 92.544,165.648 L92.544,161.28 C92.544,160.432 92.08,160.08 91.44,160.08 L89.168,160.08 L89.168,171.984 L90.72,171.984 L90.72,166.848 L91.456,166.848 Z M90.72,161.296 L90.832,161.296 C91.008,161.296 91.024,161.392 91.024,161.536 L91.024,165.328 C91.024,165.504 90.96,165.584 90.832,165.584 L90.72,165.584 L90.72,161.296 Z M93.44,171.984 L94.976,171.984 L94.976,161.504 L95.68,161.504 L95.68,160.08 L92.752,160.08 L92.752,161.504 L93.44,161.504 L93.44,171.984 Z M101.168,170.816 C100.912,170.8 100.736,170.784 100.56,170.704 C100.816,169.808 100.976,168.144 100.976,164.864 L99.728,164.864 C99.776,166.784 99.792,167.856 99.792,169.008 L99.12,165.424 C99.84,164.432 100.24,163.904 100.24,162.8 L100.24,161.248 C100.24,160.464 99.84,160 98.944,160 L98.768,160 C97.76,160 97.408,160.544 97.408,161.296 L97.408,162.72 C97.408,163.472 97.52,164.032 97.76,164.912 L97.888,165.376 C97.168,166.384 96.88,166.992 96.88,168.4 L96.88,169.952 C96.88,171.472 97.488,172.048 98.688,172.048 C99.12,172.048 99.424,171.936 99.632,171.808 C99.904,171.952 100.304,172.064 100.832,172.064 L101.168,170.816 Z M98.72,161.2 C98.72,161.056 98.768,160.992 98.864,160.992 C98.96,160.992 99.008,161.056 99.008,161.2 L99.008,163.056 C99.008,163.488 98.992,163.68 98.832,164.256 C98.768,163.792 98.72,163.488 98.72,163.056 L98.72,161.2 Z M98.896,170.88 C98.464,170.88 98.304,170.592 98.288,169.84 L98.288,169.248 C98.288,168.16 98.24,167.536 98.256,166.832 L99.056,170.864 C99.024,170.88 98.976,170.88 98.896,170.88 L98.896,170.88 Z M104.736,171.984 L104.944,164.96 L105.152,171.984 L106.928,171.984 L107.664,160.08 L106.16,160.08 L105.984,168.224 L105.696,160.08 L104.24,160.08 L103.952,168.4 L103.792,160.08 L102.176,160.08 L102.912,171.984 L104.736,171.984 Z M107.792,160.08 L107.792,171.984 L110.432,171.984 L110.432,170.544 L109.328,170.544 L109.328,166.448 L110.256,166.448 L110.256,164.976 L109.328,164.976 L109.328,161.504 L110.4,161.504 L110.4,160.08 L107.792,160.08 Z M110.656,171.984 L112.992,171.984 C113.776,171.984 114.16,171.52 114.16,170.608 L114.16,166.64 C114.16,165.92 113.712,165.632 113.44,165.552 C113.68,165.488 114.048,165.2 114.048,164.608 L114.048,161.232 C114.048,160.416 113.648,160.08 113.008,160.08 L110.656,160.08 L110.656,171.984 Z M112.336,161.28 C112.512,161.28 112.528,161.328 112.528,161.504 L112.528,164.896 C112.528,165.04 112.464,165.12 112.336,165.12 L112.224,165.12 L112.224,161.28 L112.336,161.28 Z M112.368,166.288 C112.48,166.288 112.544,166.368 112.544,166.544 L112.544,170.512 C112.544,170.688 112.544,170.752 112.368,170.752 L112.224,170.752 L112.224,166.288 L112.368,166.288 Z M115.392,171.984 L117.728,171.984 C118.512,171.984 118.896,171.52 118.896,170.608 L118.896,166.64 C118.896,165.92 118.448,165.632 118.176,165.552 C118.416,165.488 118.784,165.2 118.784,164.608 L118.784,161.232 C118.784,160.416 118.384,160.08 117.744,160.08 L115.392,160.08 L115.392,171.984 Z M117.072,161.28 C117.248,161.28 117.264,161.328 117.264,161.504 L117.264,164.896 C117.264,165.04 117.2,165.12 117.072,165.12 L116.96,165.12 L116.96,161.28 L117.072,161.28 Z M117.104,166.288 C117.216,166.288 117.28,166.368 117.28,166.544 L117.28,170.512 C117.28,170.688 117.28,170.752 117.104,170.752 L116.96,170.752 L116.96,166.288 L117.104,166.288 Z M120.688,161.28 L120.816,161.28 C120.96,161.28 120.976,161.344 120.976,161.488 L120.976,164.96 C120.976,165.104 120.912,165.168 120.8,165.168 L120.688,165.168 L120.688,161.28 Z M120.688,166.512 L120.8,166.512 C120.976,166.512 120.976,166.608 120.976,166.72 L120.976,171.6 C120.976,171.776 121.008,171.904 121.088,171.984 L122.608,171.984 L122.608,171.952 C122.56,171.84 122.544,171.728 122.544,171.552 L122.544,166.48 C122.544,165.984 122.224,165.728 121.968,165.616 C122.208,165.504 122.512,165.248 122.512,164.624 L122.512,161.184 C122.512,160.432 122.112,160.08 121.552,160.08 L119.12,160.08 L119.12,171.984 L120.688,171.984 L120.688,166.512 Z M126.336,161.808 C126.336,160.704 125.84,160 124.688,160 L124.464,160 C123.312,160 122.8,160.672 122.8,161.808 L122.8,170.288 C122.8,171.424 123.376,172.064 124.464,172.064 L124.688,172.064 C125.728,172.064 126.336,171.44 126.336,170.288 L126.336,161.808 Z M124.752,170.416 C124.752,170.592 124.688,170.672 124.576,170.672 C124.464,170.672 124.4,170.592 124.4,170.416 L124.4,161.648 C124.4,161.472 124.464,161.376 124.576,161.376 C124.688,161.376 124.752,161.472 124.752,161.648 L124.752,170.416 Z M129.024,171.984 L129.232,164.96 L129.44,171.984 L131.216,171.984 L131.952,160.08 L130.448,160.08 L130.272,168.224 L129.984,160.08 L128.528,160.08 L128.24,168.4 L128.08,160.08 L126.464,160.08 L127.2,171.984 L129.024,171.984 Z M133.936,172.064 C135.024,172.064 135.536,171.456 135.536,170.432 L135.536,167.36 C135.536,166.528 135.328,166.112 134.736,165.552 L133.904,164.72 C133.712,164.512 133.664,164.416 133.664,164.112 L133.664,161.408 C133.664,161.28 133.712,161.216 133.824,161.216 C133.936,161.216 133.984,161.28 133.984,161.408 L133.984,164.544 L135.472,164.544 L135.472,161.344 C135.472,160.576 135.136,160 134,160 L133.648,160 C132.512,160 132.096,160.576 132.096,161.472 L132.096,164.176 C132.096,164.928 132.288,165.424 132.8,165.92 L133.648,166.752 C133.888,166.992 133.92,167.104 133.92,167.424 L133.92,170.512 C133.92,170.688 133.856,170.768 133.744,170.768 C133.632,170.768 133.584,170.688 133.584,170.512 L133.584,166.912 L132.048,166.912 L132.048,170.624 C132.048,171.584 132.56,172.064 133.584,172.064 L133.936,172.064 Z M135.76,160.08 L135.76,171.984 L138.4,171.984 L138.4,170.544 L137.296,170.544 L137.296,166.448 L138.224,166.448 L138.224,164.976 L137.296,164.976 L137.296,161.504 L138.368,161.504 L138.368,160.08 L135.76,160.08 Z M140.192,161.28 L140.32,161.28 C140.464,161.28 140.48,161.344 140.48,161.488 L140.48,164.96 C140.48,165.104 140.416,165.168 140.304,165.168 L140.192,165.168 L140.192,161.28 Z M140.192,166.512 L140.304,166.512 C140.48,166.512 140.48,166.608 140.48,166.72 L140.48,171.6 C140.48,171.776 140.512,171.904 140.592,171.984 L142.112,171.984 L142.112,171.952 C142.064,171.84 142.048,171.728 142.048,171.552 L142.048,166.48 C142.048,165.984 141.728,165.728 141.472,165.616 C141.712,165.504 142.016,165.248 142.016,164.624 L142.016,161.184 C142.016,160.432 141.616,160.08 141.056,160.08 L138.624,160.08 L138.624,171.984 L140.192,171.984 L140.192,166.512 Z M143.296,166.672 L143.296,167.68 L146.56,167.68 L146.56,166.672 L143.296,166.672 Z M147.808,171.984 L150.144,171.984 C150.928,171.984 151.312,171.52 151.312,170.608 L151.312,166.64 C151.312,165.92 150.864,165.632 150.592,165.552 C150.832,165.488 151.2,165.2 151.2,164.608 L151.2,161.232 C151.2,160.416 150.8,160.08 150.16,160.08 L147.808,160.08 L147.808,171.984 Z M149.488,161.28 C149.664,161.28 149.68,161.328 149.68,161.504 L149.68,164.896 C149.68,165.04 149.616,165.12 149.488,165.12 L149.376,165.12 L149.376,161.28 L149.488,161.28 Z M149.52,166.288 C149.632,166.288 149.696,166.368 149.696,166.544 L149.696,170.512 C149.696,170.688 149.696,170.752 149.52,170.752 L149.376,170.752 L149.376,166.288 L149.52,166.288 Z M153.104,161.28 L153.232,161.28 C153.376,161.28 153.392,161.344 153.392,161.488 L153.392,164.96 C153.392,165.104 153.328,165.168 153.216,165.168 L153.104,165.168 L153.104,161.28 Z M153.104,166.512 L153.216,166.512 C153.392,166.512 153.392,166.608 153.392,166.72 L153.392,171.6 C153.392,171.776 153.424,171.904 153.504,171.984 L155.024,171.984 L155.024,171.952 C154.976,171.84 154.96,171.728 154.96,171.552 L154.96,166.48 C154.96,165.984 154.64,165.728 154.384,165.616 C154.624,165.504 154.928,165.248 154.928,164.624 L154.928,161.184 C154.928,160.432 154.528,160.08 153.968,160.08 L151.536,160.08 L151.536,171.984 L153.104,171.984 L153.104,166.512 Z M158.752,161.808 C158.752,160.704 158.256,160 157.104,160 L156.88,160 C155.728,160 155.216,160.672 155.216,161.808 L155.216,170.288 C155.216,171.424 155.792,172.064 156.88,172.064 L157.104,172.064 C158.144,172.064 158.752,171.44 158.752,170.288 L158.752,161.808 Z M157.168,170.416 C157.168,170.592 157.104,170.672 156.992,170.672 C156.88,170.672 156.816,170.592 156.816,170.416 L156.816,161.648 C156.816,161.472 156.88,161.376 156.992,161.376 C157.104,161.376 157.168,161.472 157.168,161.648 L157.168,170.416 Z M160.88,172.064 C162.016,172.064 162.512,171.376 162.512,170.56 L162.512,160.08 L160.928,160.08 L160.928,170.384 C160.928,170.544 160.864,170.624 160.752,170.624 C160.64,170.624 160.592,170.544 160.592,170.384 L160.592,160.08 L159.008,160.08 L159.008,170.56 C159.008,171.376 159.44,172.064 160.64,172.064 L160.88,172.064 Z M163.984,172.064 C164.512,172.064 164.832,171.68 165.04,171.36 C165.088,171.504 165.184,171.808 165.2,171.984 L166.256,171.984 L166.256,165.024 L164.48,165.024 L164.48,166.24 L164.784,166.24 L164.784,170.48 C164.784,170.672 164.704,170.768 164.56,170.768 C164.416,170.768 164.352,170.672 164.352,170.48 L164.352,161.552 C164.352,161.392 164.4,161.312 164.512,161.312 C164.688,161.312 164.688,161.408 164.688,161.552 L164.688,164.64 L166.192,164.64 L166.192,161.472 C166.192,160.72 165.84,160 164.608,160 L164.4,160 C163.168,160 162.768,160.736 162.768,161.568 L162.768,170.56 C162.768,171.376 163.136,172.064 163.952,172.064 L163.984,172.064 Z M166.496,171.984 L168.064,171.984 L168.064,166.56 L168.384,166.56 L168.384,171.984 L169.936,171.984 L169.936,160.08 L168.384,160.08 L168.384,164.944 L168.064,164.944 L168.064,160.08 L166.496,160.08 L166.496,171.984 Z M170.848,171.984 L172.384,171.984 L172.384,161.504 L173.088,161.504 L173.088,160.08 L170.16,160.08 L170.16,161.504 L170.848,161.504 L170.848,171.984 Z M174.976,171.984 L176.512,171.984 L176.512,161.504 L177.216,161.504 L177.216,160.08 L174.288,160.08 L174.288,161.504 L174.976,161.504 L174.976,171.984 Z M180.976,161.808 C180.976,160.704 180.48,160 179.328,160 L179.104,160 C177.952,160 177.44,160.672 177.44,161.808 L177.44,170.288 C177.44,171.424 178.016,172.064 179.104,172.064 L179.328,172.064 C180.368,172.064 180.976,171.44 180.976,170.288 L180.976,161.808 Z M179.392,170.416 C179.392,170.592 179.328,170.672 179.216,170.672 C179.104,170.672 179.04,170.592 179.04,170.416 L179.04,161.648 C179.04,161.472 179.104,161.376 179.216,161.376 C179.328,161.376 179.392,161.472 179.392,161.648 L179.392,170.416 Z M183.088,171.984 L184.64,171.984 L184.64,167.152 L185.568,160.08 L184.176,160.08 L183.904,164.544 L183.632,160.08 L182.096,160.08 L183.088,167.152 L183.088,171.984 Z M189.216,161.808 C189.216,160.704 188.72,160 187.568,160 L187.344,160 C186.192,160 185.68,160.672 185.68,161.808 L185.68,170.288 C185.68,171.424 186.256,172.064 187.344,172.064 L187.568,172.064 C188.608,172.064 189.216,171.44 189.216,170.288 L189.216,161.808 Z M187.632,170.416 C187.632,170.592 187.568,170.672 187.456,170.672 C187.344,170.672 187.28,170.592 187.28,170.416 L187.28,161.648 C187.28,161.472 187.344,161.376 187.456,161.376 C187.568,161.376 187.632,161.472 187.632,161.648 L187.632,170.416 Z M191.344,172.064 C192.48,172.064 192.976,171.376 192.976,170.56 L192.976,160.08 L191.392,160.08 L191.392,170.384 C191.392,170.544 191.328,170.624 191.216,170.624 C191.104,170.624 191.056,170.544 191.056,170.384 L191.056,160.08 L189.472,160.08 L189.472,170.56 C189.472,171.376 189.904,172.064 191.104,172.064 L191.344,172.064 Z M194.24,171.984 L196.576,171.984 C197.36,171.984 197.744,171.52 197.744,170.608 L197.744,166.64 C197.744,165.92 197.296,165.632 197.024,165.552 C197.264,165.488 197.632,165.2 197.632,164.608 L197.632,161.232 C197.632,160.416 197.232,160.08 196.592,160.08 L194.24,160.08 L194.24,171.984 Z M195.92,161.28 C196.096,161.28 196.112,161.328 196.112,161.504 L196.112,164.896 C196.112,165.04 196.048,165.12 195.92,165.12 L195.808,165.12 L195.808,161.28 L195.92,161.28 Z M195.952,166.288 C196.064,166.288 196.128,166.368 196.128,166.544 L196.128,170.512 C196.128,170.688 196.128,170.752 195.952,170.752 L195.808,170.752 L195.808,166.288 L195.952,166.288 Z M198.816,171.984 L200.368,171.984 L200.368,167.152 L201.296,160.08 L199.904,160.08 L199.632,164.544 L199.36,160.08 L197.824,160.08 L198.816,167.152 L198.816,171.984 Z M202.416,160.08 L202.416,171.984 L205.056,171.984 L205.056,170.544 L203.952,170.544 L203.952,166.448 L204.88,166.448 L204.88,164.976 L203.952,164.976 L203.952,161.504 L205.024,161.504 L205.024,160.08 L202.416,160.08 Z M205.296,160.08 L205.296,161.488 L206.496,161.488 L205.248,170.704 L205.248,171.984 L208.208,171.984 L208.208,170.576 L206.88,170.576 L208.144,161.36 L208.144,160.08 L205.296,160.08 Z M208.432,160.08 L208.432,171.984 L211.072,171.984 L211.072,170.544 L209.968,170.544 L209.968,166.448 L210.896,166.448 L210.896,164.976 L209.968,164.976 L209.968,161.504 L211.04,161.504 L211.04,160.08 L208.432,160.08 Z M212.848,171.984 L212.832,167.184 L213.312,171.984 L214.944,171.984 L214.128,165.568 L214.88,160.08 L213.344,160.08 L212.832,164.576 L212.848,160.08 L211.312,160.08 L211.312,171.984 L212.848,171.984 Z M216.64,160.08 L215.072,160.08 L215.072,171.984 L216.64,171.984 L216.64,160.08 Z M216.896,160.08 L216.896,171.984 L219.536,171.984 L219.536,170.544 L218.432,170.544 L218.432,166.448 L219.36,166.448 L219.36,164.976 L218.432,164.976 L218.432,161.504 L219.504,161.504 L219.504,160.08 L216.896,160.08 Z M219.76,160.08 L219.76,171.984 L222.272,171.984 L222.272,170.528 L221.312,170.528 L221.296,160.08 L219.76,160.08 Z M225.248,168.208 L224.864,168.208 L225.056,163.184 L225.248,168.208 Z M225.392,171.984 L226.896,171.984 L226.096,160.08 L224.112,160.08 L223.36,171.984 L224.704,171.984 L224.8,169.568 L225.296,169.568 L225.392,171.984 Z M228.256,173.776 L229.952,173.776 L229.424,172 C230.176,171.792 230.544,171.232 230.544,170.288 L230.544,161.808 C230.544,160.704 230.048,160 228.896,160 L228.672,160 C227.52,160 227.008,160.672 227.008,161.808 L227.008,170.288 C227.008,171.248 227.44,171.856 228.256,172.032 L228.256,173.776 Z M228.96,170.416 C228.96,170.592 228.896,170.672 228.784,170.672 C228.672,170.672 228.608,170.592 228.608,170.416 L228.608,161.648 C228.608,161.472 228.672,161.376 228.784,161.376 C228.896,161.376 228.96,161.472 228.96,161.648 L228.96,170.416 Z M232.672,172.064 C233.808,172.064 234.304,171.376 234.304,170.56 L234.304,160.08 L232.72,160.08 L232.72,170.384 C232.72,170.544 232.656,170.624 232.544,170.624 C232.432,170.624 232.384,170.544 232.384,170.384 L232.384,160.08 L230.8,160.08 L230.8,170.56 C230.8,171.376 231.232,172.064 232.432,172.064 L232.672,172.064 Z M236.128,160.08 L234.56,160.08 L234.56,171.984 L236.128,171.984 L236.128,160.08 Z M236.4,160.08 L236.4,171.984 L237.664,171.984 L237.648,164.336 L238.384,171.984 L239.84,171.984 L239.84,160.08 L238.56,160.08 L238.592,166.944 L237.984,160.08 L236.4,160.08 Z M243.632,161.808 C243.632,160.704 243.136,160 241.984,160 L241.76,160 C240.608,160 240.096,160.672 240.096,161.808 L240.096,170.288 C240.096,171.424 240.672,172.064 241.76,172.064 L241.984,172.064 C243.024,172.064 243.632,171.44 243.632,170.288 L243.632,161.808 Z M242.048,170.416 C242.048,170.592 241.984,170.672 241.872,170.672 C241.76,170.672 241.696,170.592 241.696,170.416 L241.696,161.648 C241.696,161.472 241.76,161.376 241.872,161.376 C241.984,161.376 242.048,161.472 242.048,161.648 L242.048,170.416 Z" id="FEATURING-JAVASCRIPT"></path>
        </g>
    </g>
</svg>